:FULLY-SPECIFIED
:DEGREES
86
root -0.567874014377594 -0.567874014377594 -0.567874014377594 -0.5678755879732001 -0.5678755879732001 -0.5678755879732001
lhipjoint -9.671654586443837e-08 -1.5341245206083327e-07 1.0672170578144923e-06
lfemur -21.645250262816635 0.19556242988305467 -16.189542748167863
ltibia 24.294629415445808 -9.257742797974414e-07 5.059844191656749e-07
lfoot -13.521891985735262 -4.0342237001883094e-07 8.478709113935043
ltoes -52.987572807299664 2.4552640452350705e-07 1.1427508041671344e-06
rhipjoint 1.1005675908711953e-07 6.870210827458292e-07 -1.494104084495789e-06
rfemur -10.007144940738401 3.9393807594702004 9.105271394804284
rtibia 3.347558314823524 1.245767799855615e-07 3.608156722281644e-08
rfoot -14.335948935736878 1.703706098447728e-06 -18.233302687470346
rtoes -7.891341873617918 -1.4705672674087102e-06 -6.739922076598072e-07
lowerback 31.17892905161069 0.41983825466532887 -1.951412793516146
upperback 1.846610157448059 0.31907914394674214 2.6664106562114207
thorax -14.062989817067427 0.34262960952451965 3.805686636656371
lowerneck -11.457395592112624 -2.029057957114028 -1.9248847656666397
upperneck 23.5797988923852 -3.0151462414105206 2.3060364286666197
head 9.370881229926802 -1.331763944747426 0.7745436119620046
lclavicle -1.4085775951116125e-07 5.4855408257763046e-08 -1.0938974842598547e-06
lhumerus 77.86359646263342 3.533231671325032 85.73864748130721
lradius 22.623512644428175 -1.3340783178080074e-07 1.3249777585312794e-06
lwrist -1.3589799745199955e-06 -53.80912162104714 3.276839740557649e-07
lhand -4.562975323145072 2.6246558075710764e-07 -26.656099019086014
lfingers 7.125022823272814 9.845282338726802e-08 3.18924141240953e-07
lthumb 21.213298854421275 -1.2803152392500461e-07 2.20318914769186
rclavicle 1.398304276268298e-07 4.3880174074018323e-07 -1.3740421654916584e-06
rhumerus 74.00932071399522 -2.269620207889639 -59.50260680372427
rradius 33.5289888242424 -1.1020441824653927e-06 -3.84111873992481e-06
rwrist 3.4892420166288986e-07 37.38119502556208 7.799936323058735e-07
rhand -6.972260092956778 2.0321462048512455e-07 -36.68780446630613
rfingers 7.125022396385991 5.1024341088409163e-08 -3.1892353057445414e-07
rthumb 18.897492480477187 1.5447771905696147e-06 -65.78980959509936
87
root -0.567874014377594 -0.567874014377594 -0.567874014377594 -0.5678755879732001 -0.5678755879732001 -0.5678755879732001
lhipjoint -9.671654586443837e-08 -1.5341245206083327e-07 1.0672170578144923e-06
lfemur -19.976916793885785 -1.1814989292334994 -15.676406003750438
ltibia 22.496180842826213 -1.1358331740682635e-06 -4.6181124730551266e-07
lfoot -13.68181403496194 -3.8959199515308004e-08 9.800325105123122
ltoes -52.484843563630044 -6.332893517348085e-07 1.5469531988604847e-06
rhipjoint 1.1005675908711953e-07 6.870210827458292e-07 -1.494104084495789e-06
rfemur -8.26356071640058 4.185908753598994 9.357207191208436
rtibia 1.0860140585754847 4.541162896424922e-08 -1.6967473501379353e-06
rfoot -13.614818416940578 1.4544102531823751e-06 -18.57396349496661
rtoes -6.943255267759496 1.1718177152899673e-06 -7.249234221071431e-07
lowerback 29.64029916747109 0.4369682623820151 -2.01333507508807
upperback 1.963501588016834 0.2782482730884059 2.427805041189607
thorax -13.394282707698268 0.32705677821689055 3.6427174692862203
lowerneck -11.457395592112624 -2.029057957114028 -1.9248847656666397
upperneck 23.5797988923852 -3.0151462414105206 2.3060364286666197
head 9.370881229926802 -1.331763944747426 0.7745436119620046
lclavicle -1.4085775951116125e-07 5.4855408257763046e-08 -1.0938974842598547e-06
lhumerus 77.47339458553976 9.375879220851958 85.01025561764955
lradius 21.440170417892418 -1.789936788082818e-07 1.1385457546561153e-06
lwrist -1.534236069022121e-06 -56.4273209601152 3.6994079810925176e-07
lhand -4.562975323145072 2.6246558075710764e-07 -26.656099019086014
lfingers 7.125022823272814 9.845282338726802e-08 3.18924141240953e-07
lthumb 21.213298854421275 -1.2803152392500461e-07 2.20318914769186
rclavicle 1.398304276268298e-07 4.3880174074018323e-07 -1.3740421654916584e-06
rhumerus 72.41432127863551 -7.075983772579415 -57.83164883460484
rradius 31.839927438727845 -2.221771638293224e-07 -3.1929886656019177e-06
rwrist 3.7541605938229753e-07 39.12538969805696 8.392143900306013e-07
rhand -6.972260092956778 2.0321462048512455e-07 -36.68780446630613
rfingers 7.125022396385991 5.1024341088409163e-08 -3.1892353057445414e-07
rthumb 18.897492480477187 1.5447771905696147e-06 -65.78980959509936
88
root -0.567874014377594 -0.567874014377594 -0.567874014377594 -0.5678755879732001 -0.5678755879732001 -0.5678755879732001
lhipjoint -9.671654586443837e-08 -1.5341245206083327e-07 1.0672170578144923e-06
lfemur -18.741286054158994 -2.160101326199658 -15.27846210723257
ltibia 21.203584617874224 -1.336064205262238e-06 1.2468922404354807e-06
lfoot -13.87114773252834 3.3721574021398673e-07 10.857518006556974
ltoes -52.113301763348865 -1.0692855888015664e-06 6.771471143483194e-07
rhipjoint 1.1005675908711953e-07 6.870210827458292e-07 -1.494104084495789e-06
rfemur -7.2325419536398625 4.557593560965925 9.542797091336023
rtibia -0.1543076470691413 -7.323860084451359e-09 -8.552605173985219e-07
rfoot -13.282393963809703 2.391090934871367e-06 -18.768965395770472
rtoes -6.1696134008504915 3.760034442208702e-07 -7.017891360205505e-07
lowerback 28.44242571347613 0.476788238562763 -2.0431012529343975
upperback 2.150294028325166 0.28088480614931016 2.1506088573572213
thorax -12.81825443517701 0.32458424973734595 3.4010658033379926
lowerneck -11.457395592112624 -2.029057957114028 -1.9248847656666397
upperneck 23.5797988923852 -3.0151462414105206 2.3060364286666197
head 9.370881229926802 -1.331763944747426 0.7745436119620046
lclavicle -1.4085775951116125e-07 5.4855408257763046e-08 -1.0938974842598547e-06
lhumerus 75.80872039045674 14.60660713442968 82.58813393417962
lradius 21.03561660580527 -1.0493123160684744e-06 9.164565268026259e-07
lwrist -1.6251531151470665e-06 -57.63392168832215 3.9186301297339484e-07
lhand -4.562975323145072 2.6246558075710764e-07 -26.656099019086014
lfingers 7.125022823272814 9.845282338726802e-08 3.18924141240953e-07
lthumb 21.213298854421275 -1.2803152392500461e-07 2.20318914769186
rclavicle 1.398304276268298e-07 4.3880174074018323e-07 -1.3740421654916584e-06
rhumerus 69.80531195909569 -11.772608822308712 -55.48617894909539
rradius 30.970331659263916 -8.582754796810497e-08 -3.417687067849455e-06
rwrist 3.92865065809118e-07 40.21175860630417 8.782192368666978e-07
rhand -6.972260092956778 2.0321462048512455e-07 -36.68780446630613
rfingers 7.125022396385991 5.1024341088409163e-08 -3.1892353057445414e-07
rthumb 18.897492480477187 1.5447771905696147e-06 -65.78980959509936
89
root -0.567874014377594 -0.567874014377594 -0.567874014377594 -0.5678755879732001 -0.5678755879732001 -0.5678755879732001
lhipjoint -9.671654586443837e-08 -1.5341245206083327e-07 1.0672170578144923e-06
lfemur -17.84146668761776 -2.8201300398980815 -14.975613226981498
ltibia 20.31630206355455 -1.1534191479018865e-06 3.8040166790102267e-07
lfoot -14.116611924693904 -1.3946837109299822e-06 11.704159227767782
ltoes -51.85142206528682 -2.2617568084154595e-07 2.5067737644123087e-07
rhipjoint 1.1005675908711953e-07 6.870210827458292e-07 -1.494104084495789e-06
rfemur -6.709979548167819 4.956053990539775 9.68993473398373
rtibia -0.6854233036716783 -3.717587522763014e-08 -8.602227933681038e-07
rfoot -13.208899420793074 1.555420700533414e-06 -18.80429284170507
rtoes -5.566262237215068 4.296162479312417e-07 -5.571488064378182e-07
lowerback 27.53044519511769 0.5264573742070957 -2.0455052660788304
upperback 2.3402409488129856 0.30999499235062516 1.8708165613099956
thorax -12.361286605172833 0.32952936005728806 3.124730223341028
lowerneck -11.457395592112624 -2.029057957114028 -1.9248847656666397
upperneck 23.5797988923852 -3.0151462414105206 2.3060364286666197
head 9.370881229926802 -1.331763944747426 0.7745436119620046
lclavicle -1.4085775951116125e-07 5.4855408257763046e-08 -1.0938974842598547e-06
lhumerus 73.10790649828279 19.266819591919994 78.74148067665516
lradius 21.14294619842285 -1.9110197414730104e-07 1.0918277319397828e-06
lwrist -1.6398374053336967e-06 -57.82018777717756 3.9540442066679847e-07
lhand -4.562975323145072 2.6246558075710764e-07 -26.656099019086014
lfingers 7.125022823272814 9.845282338726802e-08 3.18924141240953e-07
lthumb 21.213298854421275 -1.2803152392500461e-07 2.20318914769186
rclavicle 1.398304276268298e-07 4.3880174074018323e-07 -1.3740421654916584e-06
rhumerus 66.48475402239147 -16.175183982985203 -52.57386483417741
rradius 30.636362729606972 7.74395143622249e-07 -3.1060285348339623e-06
rwrist 3.9957982740818633e-07 40.61728059770617 8.932268749644643e-07
rhand -6.972260092956778 2.0321462048512455e-07 -36.68780446630613
rfingers 7.125022396385991 5.1024341088409163e-08 -3.1892353057445414e-07
rthumb 18.897492480477187 1.5447771905696147e-06 -65.78980959509936
